<svg width="100" height="100" viewBox="0 0 24 24" fill="none" xmlns="http://www.w3.org/2000/svg">
<path d="M0 12C0 5.37258 5.37258 0 12 0C18.6274 0 24 5.37258 24 12C24 18.6274 18.6274 24 12 24C5.37258 24 0 18.6274 0 12Z" fill="#FFF"/>
<path d="M9.375 9.75C9.39075 10.4922 9.64663 11.1114 10.1426 11.6074C10.6386 12.1034 11.2578 12.3593 12 12.375C12.7422 12.3593 13.3614 12.1034 13.8574 11.6074C14.3534 11.1114 14.6093 10.4922 14.625 9.75C14.6093 9.00775 14.3534 8.38862 13.8574 7.89262C13.3614 7.39662 12.7422 7.14075 12 7.125C11.2578 7.14075 10.6386 7.39662 10.1426 7.89262C9.64663 8.38862 9.39075 9.00775 9.375 9.75ZM15.75 16.875H7.875C7.7655 16.875 7.67563 16.8399 7.60538 16.7696C7.53513 16.6994 7.5 16.6095 7.5 16.5V15.375C7.51575 14.8438 7.69937 14.4024 8.05087 14.0509C8.40237 13.6994 8.84375 13.5157 9.375 13.5H14.625C15.1562 13.5157 15.5976 13.6994 15.9491 14.0509C16.3006 14.4024 16.4843 14.8438 16.5 15.375V16.5C16.5 16.6095 16.4649 16.6994 16.3946 16.7696C16.3244 16.8399 16.2345 16.875 16.125 16.875H15.75Z" fill="#8aa9ff"/>
</svg>
